<svg width="96" height="96" viewBox="0 0 96 96"
     xmlns="http://www.w3.org/2000/svg"
     shape-rendering="crispEdges">

  <!-- HEAD -->
  <rect x="36" y="6" width="24" height="24" fill="#f1c27d"/>
  <rect x="36" y="6" width="24" height="6" fill="#9e9e9e"/> <!-- helmet -->
  <rect x="40" y="14" width="4" height="4" fill="#000"/>
  <rect x="52" y="14" width="4" height="4" fill="#000"/>

  <!-- TORSO (ARMOR) -->
  <rect x="30" y="30" width="36" height="28" fill="#3f51b5"/>
  <rect x="30" y="30" width="36" height="6" fill="#283593"/>

  <!-- BELT -->
  <rect x="30" y="52" width="36" height="6" fill="#5d4037"/>

  <!-- ARMS -->
  <rect x="20" y="32" width="10" height="26" fill="#2c3e50"/>
  <rect x="66" y="32" width="10" height="26" fill="#2c3e50"/>

  <!-- LEGS -->
  <rect x="34" y="58" width="10" height="30" fill="#1a237e"/>
  <rect x="52" y="58" width="10" height="30" fill="#1a237e"/>

  <!-- BOOTS -->
  <rect x="32" y="86" width="14" height="6" fill="#212121"/>
  <rect x="50" y="86" width="14" height="6" fill="#212121"/>

  <!-- SWORD -->
  <rect x="76" y="28" width="4" height="36" fill="#e0e0e0"/>
  <rect x="72" y="40" width="12" height="4" fill="#9e9e9e"/>

</svg>
